<svg width="27" height="28" viewBox="0 0 27 28" fill="none" xmlns="http://www.w3.org/2000/svg">
<path d="M24.1992 11.8164C23.6133 11.2305 22.7344 11.2891 22.1484 11.8164L15.4688 18.9062V2.03125C15.4688 1.26953 14.8242 0.625 14.0625 0.625H12.1875C11.3672 0.625 10.7812 1.26953 10.7812 2.03125V18.9062L4.04297 11.8164C3.45703 11.2891 2.57812 11.2305 1.99219 11.8164L0.703125 13.1055C0.175781 13.6328 0.175781 14.5703 0.703125 15.0977L12.1289 26.4648C12.6562 27.0508 13.5352 27.0508 14.1211 26.4648L25.4883 15.0977C26.0156 14.5703 26.0156 13.6914 25.4883 13.1055L24.1992 11.8164Z" fill="#2D0620"/>
</svg>
