<svg width="18" height="10" viewBox="0 0 18 10" fill="none" xmlns="http://www.w3.org/2000/svg">
<path d="M17.0312 0.6875C17.125 0.3125 17.0312 0 16.4688 0H14.625C14.1562 0 13.9375 0.25 13.8125 0.53125C13.8125 0.53125 12.875 2.8125 11.5625 4.3125C11.125 4.71875 10.9375 4.875 10.6875 4.875C10.5938 4.875 10.4062 4.71875 10.4062 4.34375V0.6875C10.4062 0.21875 10.2812 0 9.875 0H7C6.6875 0 6.53125 0.21875 6.53125 0.4375C6.53125 0.875 7.1875 0.96875 7.25 2.21875V4.9375C7.25 5.53125 7.15625 5.65625 6.90625 5.65625C6.28125 5.65625 4.78125 3.34375 3.875 0.71875C3.6875 0.21875 3.5 0 3.03125 0H1.1875C0.6875 0 0.5625 0.25 0.5625 0.53125C0.5625 1.03125 1.1875 3.4375 3.46875 6.65625C5 8.84375 7.15625 10 9.09375 10C10.25 10 10.4062 9.75 10.4062 9.3125C10.4062 7.21875 10.3125 7 10.875 7C11.1562 7 11.625 7.15625 12.7188 8.21875C13.9688 9.46875 14.1875 10 14.875 10H16.7188C17.25 10 17.5 9.75 17.3438 9.21875C17 8.15625 14.6562 5.90625 14.5312 5.75C14.25 5.40625 14.3438 5.25 14.5312 4.9375C14.5312 4.9375 16.7812 1.75 17.0312 0.6875Z" fill="#2D0620"/>
</svg>
