<svg width="66" height="48" viewBox="0 0 66 48" fill="none" xmlns="http://www.w3.org/2000/svg">
<path d="M28.9766 36.5352H28.8828C28.6094 36.7695 28.3477 36.9844 28.0977 37.1797C27.8477 37.375 27.5273 37.5703 27.1367 37.7656C26.7695 37.9531 26.4102 38.0977 26.0586 38.1992C25.7148 38.3086 25.3164 38.3633 24.8633 38.3633C23.5039 38.3633 22.4805 37.9648 21.793 37.168C21.1055 36.3633 20.7617 35.2656 20.7617 33.875C20.7617 32.8047 20.9492 31.8008 21.3242 30.8633C21.6992 29.9258 22.207 29.1016 22.8477 28.3906C23.4805 27.6875 24.2305 27.1328 25.0977 26.7266C25.9648 26.3125 26.875 26.1055 27.8281 26.1055C28.5469 26.1055 29.1484 26.1836 29.6328 26.3398C30.1172 26.4883 30.5195 26.6875 30.8398 26.9375L31.707 23.1289C31.7305 23.0195 31.75 22.9023 31.7656 22.7773C31.7891 22.6445 31.8008 22.5391 31.8008 22.4609C31.8008 22.2031 31.7344 21.9844 31.6016 21.8047C31.4688 21.625 31.2852 21.4844 31.0508 21.3828C30.832 21.2812 30.582 21.207 30.3008 21.1602C30.0195 21.1133 29.7109 21.0703 29.375 21.0312L29.5859 20.1641L36.1602 19.8594L36.2891 20.0469L33.1367 33.6758C33.082 33.9023 33.0156 34.2031 32.9375 34.5781C32.8672 34.9453 32.832 35.2227 32.832 35.4102C32.832 35.8555 32.9297 36.1641 33.125 36.3359C33.3281 36.5 33.6797 36.582 34.1797 36.582C34.3984 36.582 34.6602 36.5391 34.9648 36.4531C35.2773 36.3672 35.4961 36.2969 35.6211 36.2422L35.3633 37.2969C34.5898 37.6016 33.9727 37.8359 33.5117 38C33.0508 38.1562 32.5156 38.2344 31.9062 38.2344C31.1016 38.2344 30.457 38.0781 29.9727 37.7656C29.4961 37.4453 29.1641 37.0352 28.9766 36.5352ZM30.3594 29.0352C30.3594 28.8398 30.332 28.6406 30.2773 28.4375C30.2305 28.2266 30.1328 28.0273 29.9844 27.8398C29.8359 27.6445 29.6523 27.4922 29.4336 27.3828C29.2148 27.2656 28.918 27.207 28.543 27.207C28.043 27.207 27.5742 27.3945 27.1367 27.7695C26.707 28.1367 26.3242 28.6406 25.9883 29.2812C25.6758 29.875 25.4258 30.582 25.2383 31.4023C25.0508 32.2148 24.957 33.0547 24.957 33.9219C24.957 34.3047 24.9844 34.6602 25.0391 34.9883C25.1016 35.3164 25.1992 35.5938 25.332 35.8203C25.4727 36.0625 25.6602 36.25 25.8945 36.3828C26.1367 36.5156 26.4375 36.582 26.7969 36.582C27.1641 36.582 27.5273 36.4766 27.8867 36.2656C28.2539 36.0469 28.582 35.7812 28.8711 35.4688L30.3594 29.0352ZM42.3125 38.3867C41.375 38.3867 40.5508 38.2578 39.8398 38C39.1367 37.75 38.5547 37.3984 38.0938 36.9453C37.6406 36.4922 37.3008 35.9648 37.0742 35.3633C36.8477 34.7617 36.7344 34.0977 36.7344 33.3711C36.7344 32.4492 36.9062 31.5547 37.25 30.6875C37.5938 29.8203 38.1055 29.0391 38.7852 28.3438C39.4258 27.6797 40.2383 27.1406 41.2227 26.7266C42.207 26.3125 43.293 26.1055 44.4805 26.1055C45.8789 26.1055 46.9414 26.3281 47.668 26.7734C48.4023 27.2188 48.7695 27.8867 48.7695 28.7773C48.7695 29.6289 48.4531 30.3633 47.8203 30.9805C47.1875 31.5898 46.3281 32.043 45.2422 32.3398C44.3828 32.5977 43.6484 32.7812 43.0391 32.8906C42.4375 33 41.6992 33.1016 40.8242 33.1953C40.8398 33.5391 40.8867 33.9258 40.9648 34.3555C41.043 34.7852 41.1602 35.1523 41.3164 35.457C41.5039 35.8086 41.7695 36.0898 42.1133 36.3008C42.457 36.5039 42.8945 36.6055 43.4258 36.6055C44.3477 36.6055 45.1289 36.4297 45.7695 36.0781C46.418 35.7188 47.0352 35.1523 47.6211 34.3789L48.4766 35.0938C47.7734 36.0938 46.8711 36.8945 45.7695 37.4961C44.6758 38.0898 43.5234 38.3867 42.3125 38.3867ZM44.9609 29.1055C44.9609 28.4414 44.8398 27.9336 44.5977 27.582C44.3555 27.2227 44.0195 27.043 43.5898 27.043C42.9883 27.043 42.418 27.5352 41.8789 28.5195C41.3477 29.4961 41.0078 30.7344 40.8594 32.2344C41.3203 32.1797 41.7773 32.1094 42.2305 32.0234C42.6836 31.9375 43.043 31.8359 43.3086 31.7188C43.8945 31.4609 44.3164 31.1289 44.5742 30.7227C44.832 30.3164 44.9609 29.7773 44.9609 29.1055ZM58.2031 36.5352H58.1094C57.8359 36.7695 57.5742 36.9844 57.3242 37.1797C57.082 37.375 56.7734 37.5703 56.3984 37.7656C56.0703 37.9375 55.7227 38.0781 55.3555 38.1875C54.9961 38.3047 54.5977 38.3633 54.1602 38.3633C52.8008 38.3633 51.7773 37.9648 51.0898 37.168C50.4023 36.3633 50.0586 35.2656 50.0586 33.875C50.0586 32.8047 50.25 31.8008 50.6328 30.8633C51.0156 29.9258 51.5273 29.1016 52.168 28.3906C52.8164 27.6875 53.5742 27.1328 54.4414 26.7266C55.3086 26.3125 56.2227 26.1055 57.1836 26.1055C57.8867 26.1055 58.5 26.1875 59.0234 26.3516C59.5547 26.5156 59.9883 26.7383 60.3242 27.0195L63.9219 26.2812L64.0859 26.4688L62.3633 33.6758C62.3008 33.918 62.2344 34.2227 62.1641 34.5898C62.0938 34.9492 62.0586 35.2227 62.0586 35.4102C62.0586 35.8555 62.1602 36.1641 62.3633 36.3359C62.5664 36.5 62.918 36.582 63.418 36.582C63.6367 36.582 63.8984 36.5391 64.2031 36.4531C64.5156 36.3672 64.7344 36.2969 64.8594 36.2422L64.6016 37.2969C63.8281 37.6016 63.207 37.8359 62.7383 38C62.2773 38.1562 61.7422 38.2344 61.1328 38.2344C60.3281 38.2344 59.6836 38.0781 59.1992 37.7656C58.7227 37.4453 58.3906 37.0352 58.2031 36.5352ZM59.5977 29.1055C59.5977 28.9336 59.5742 28.7305 59.5273 28.4961C59.4805 28.2617 59.3984 28.0625 59.2812 27.8984C59.1406 27.6953 58.957 27.543 58.7305 27.4414C58.5039 27.332 58.2227 27.2773 57.8867 27.2773C57.3711 27.2773 56.8945 27.4648 56.457 27.8398C56.0273 28.207 55.6445 28.6992 55.3086 29.3164C54.9805 29.9258 54.7227 30.6367 54.5352 31.4492C54.3477 32.2539 54.2539 33.0781 54.2539 33.9219C54.2539 34.3047 54.2812 34.6602 54.3359 34.9883C54.3984 35.3164 54.4961 35.5938 54.6289 35.8203C54.7695 36.0625 54.957 36.25 55.1914 36.3828C55.4336 36.5156 55.7344 36.582 56.0938 36.582C56.4609 36.582 56.8125 36.4766 57.1484 36.2656C57.4922 36.0469 57.8086 35.7812 58.0977 35.4688L59.5977 29.1055Z" fill="#2D0620"/>
<path d="M16.7109 37.6484L16.1953 39.7578C14.6484 40.3672 13.4141 40.8281 12.4922 41.1406C11.5703 41.4688 10.5 41.6328 9.28125 41.6328C7.40625 41.6328 5.94531 41.1797 4.89844 40.2734C3.86719 39.3516 3.35156 38.1875 3.35156 36.7812C3.35156 36.2344 3.39062 35.6797 3.46875 35.1172C3.54688 34.5391 3.67188 33.8906 3.84375 33.1719L5.76562 26.3281C5.9375 25.6719 6.07812 25.0547 6.1875 24.4766C6.3125 23.8828 6.375 23.3438 6.375 22.8594C6.375 21.9844 6.19531 21.375 5.83594 21.0312C5.47656 20.6875 4.78906 20.5156 3.77344 20.5156C3.27344 20.5156 2.75781 20.5938 2.22656 20.75C1.71094 20.9062 1.26562 21.0547 0.890625 21.1953L1.40625 19.0859C2.67188 18.5703 3.88281 18.1328 5.03906 17.7734C6.19531 17.3984 7.28906 17.2109 8.32031 17.2109C10.1797 17.2109 11.6094 17.6641 12.6094 18.5703C13.625 19.4609 14.1328 20.625 14.1328 22.0625C14.1328 22.3594 14.0938 22.8828 14.0156 23.6328C13.9531 24.3828 13.8281 25.0703 13.6406 25.6953L11.7188 32.5156C11.5625 33.0625 11.4219 33.6875 11.2969 34.3906C11.1719 35.0938 11.1094 35.625 11.1094 35.9844C11.1094 36.8906 11.3125 37.5078 11.7188 37.8359C12.125 38.1641 12.8281 38.3281 13.8281 38.3281C14.2969 38.3281 14.8281 38.25 15.4219 38.0938C16.0156 37.9219 16.4453 37.7734 16.7109 37.6484ZM17.2031 9.03125C17.2031 10.2188 16.75 11.2344 15.8438 12.0781C14.9531 12.9062 13.875 13.3203 12.6094 13.3203C11.3438 13.3203 10.2578 12.9062 9.35156 12.0781C8.44531 11.2344 7.99219 10.2188 7.99219 9.03125C7.99219 7.84375 8.44531 6.82812 9.35156 5.98438C10.2578 5.14062 11.3438 4.71875 12.6094 4.71875C13.875 4.71875 14.9531 5.14062 15.8438 5.98438C16.75 6.82812 17.2031 7.84375 17.2031 9.03125Z" fill="#E320A3"/>
</svg>
